<svg width="451" height="133" viewBox="0 0 451 133" fill="none" xmlns="http://www.w3.org/2000/svg">
<g filter="url(#filter0_d_16_142)">
<path d="M93.2518 108.696C93.2509 109.942 93.5978 111.161 94.2486 112.197C94.8994 113.234 95.8249 114.042 96.908 114.519C97.9912 114.997 99.1832 115.122 100.333 114.88C101.484 114.637 102.54 114.038 103.37 113.157C104.2 112.276 104.765 111.154 104.994 109.932C105.223 108.71 105.106 107.443 104.657 106.292C104.209 105.141 103.449 104.157 102.474 103.465C101.499 102.772 100.353 102.403 99.1799 102.403C97.6085 102.403 96.1014 103.066 94.9898 104.246C93.8782 105.426 93.2531 107.027 93.2518 108.696V108.696Z" fill="#8ACD55"/>
<path d="M95.4749 108.707C95.4758 109.512 95.6939 110.3 96.1016 110.969C96.5092 111.639 97.0882 112.161 97.7653 112.468C98.4424 112.776 99.1872 112.856 99.9056 112.698C100.624 112.54 101.284 112.152 101.801 111.581C102.319 111.011 102.671 110.285 102.814 109.495C102.957 108.704 102.883 107.885 102.602 107.141C102.322 106.396 101.847 105.76 101.238 105.312C100.629 104.865 99.9125 104.626 99.1799 104.626C98.6928 104.625 98.2103 104.73 97.7602 104.935C97.3101 105.14 96.9012 105.441 96.557 105.82C96.2128 106.199 95.94 106.649 95.7543 107.145C95.5686 107.64 95.4736 108.171 95.4749 108.707V108.707Z" fill="white"/>
<path d="M96.2158 108.336C96.2168 108.922 96.3916 109.495 96.7179 109.981C97.0442 110.468 97.5074 110.847 98.0491 111.071C98.5908 111.294 99.1866 111.352 99.7613 111.237C100.336 111.122 100.864 110.84 101.278 110.425C101.692 110.01 101.973 109.482 102.087 108.907C102.201 108.332 102.142 107.737 101.918 107.195C101.693 106.654 101.313 106.192 100.826 105.866C100.339 105.541 99.7659 105.367 99.1799 105.367C98.7902 105.367 98.4043 105.444 98.0444 105.593C97.6844 105.742 97.3574 105.961 97.0821 106.237C96.8068 106.513 96.5886 106.84 96.44 107.2C96.2913 107.56 96.2151 107.946 96.2158 108.336V108.336Z" fill="#95A5A6"/>
<path d="M97.1384 107.072C97.0299 107.302 96.9688 107.551 96.9584 107.805C96.9481 108.058 96.9888 108.311 97.0782 108.549C97.1675 108.787 97.3039 109.006 97.4794 109.192C97.6549 109.378 97.8661 109.529 98.1009 109.635C98.3353 109.741 98.5888 109.801 98.8469 109.811C99.1049 109.822 99.3625 109.782 99.6048 109.694C99.8471 109.606 100.069 109.472 100.259 109.3C100.448 109.128 100.601 108.921 100.709 108.691L103.443 102.923C103.552 102.693 103.614 102.443 103.624 102.19C103.635 101.936 103.594 101.683 103.505 101.445C103.415 101.207 103.279 100.988 103.103 100.802C102.927 100.616 102.716 100.465 102.48 100.36V100.36C102.246 100.252 101.992 100.192 101.733 100.182C101.475 100.171 101.216 100.211 100.974 100.299C100.731 100.386 100.508 100.52 100.318 100.693C100.128 100.865 99.9749 101.073 99.8671 101.304L97.1384 107.072Z" fill="white"/>
<path d="M36.9352 108.696C36.9343 109.942 37.2812 111.161 37.932 112.197C38.5828 113.234 39.5083 114.042 40.5914 114.519C41.6746 114.997 42.8667 115.122 44.0169 114.88C45.1671 114.637 46.2239 114.038 47.0534 113.157C47.8829 112.276 48.448 111.154 48.6771 109.932C48.9062 108.71 48.7891 107.443 48.3406 106.292C47.892 105.141 47.1322 104.157 46.1572 103.465C45.1823 102.772 44.036 102.403 42.8633 102.403C41.2919 102.403 39.7848 103.066 38.6732 104.246C37.5616 105.426 36.9365 107.027 36.9352 108.696V108.696Z" fill="#8ACD55"/>
<path d="M39.1583 108.707C39.1592 109.512 39.3773 110.3 39.785 110.969C40.1926 111.639 40.7716 112.161 41.4487 112.468C42.1258 112.776 42.8706 112.856 43.589 112.698C44.3074 112.54 44.9671 112.152 45.4848 111.581C46.0025 111.011 46.3549 110.285 46.4975 109.495C46.6401 108.704 46.5664 107.885 46.2859 107.141C46.0053 106.396 45.5304 105.76 44.9212 105.312C44.312 104.865 43.5959 104.626 42.8633 104.626C42.3762 104.625 41.8937 104.73 41.4436 104.935C40.9935 105.14 40.5846 105.441 40.2404 105.82C39.8962 106.199 39.6234 106.649 39.4377 107.145C39.252 107.64 39.157 108.171 39.1583 108.707V108.707Z" fill="white"/>
<path d="M39.8993 108.341C39.9014 108.927 40.0769 109.499 40.4039 109.985C40.7308 110.471 41.1944 110.85 41.7362 111.072C42.278 111.295 42.8736 111.352 43.4479 111.237C44.0222 111.121 44.5494 110.838 44.9628 110.423C45.3763 110.008 45.6576 109.48 45.7711 108.905C45.8847 108.331 45.8254 107.735 45.6007 107.194C45.3761 106.653 44.9962 106.191 44.509 105.866C44.0218 105.541 43.4491 105.367 42.8633 105.367C42.4732 105.367 42.087 105.444 41.7267 105.594C41.3664 105.743 41.0392 105.962 40.7638 106.239C40.4884 106.515 40.2703 106.843 40.122 107.204C39.9736 107.565 39.898 107.951 39.8993 108.341V108.341Z" fill="#95A5A6"/>
<path d="M40.8426 107.079C40.722 107.309 40.6539 107.558 40.6421 107.811C40.6303 108.064 40.6751 108.316 40.7739 108.554C40.8728 108.792 41.0236 109.01 41.2179 109.196C41.4122 109.381 41.646 109.531 41.9059 109.637V109.637C42.4299 109.85 43.0279 109.871 43.5689 109.694C44.11 109.517 44.55 109.158 44.7928 108.695L47.8497 102.916C47.9696 102.686 48.0372 102.438 48.0486 102.185C48.06 101.932 48.0151 101.68 47.9163 101.442C47.8176 101.205 47.667 100.987 47.4731 100.801C47.2792 100.615 47.0459 100.465 46.7864 100.359V100.359C46.5276 100.252 46.2475 100.192 45.9622 100.181C45.6769 100.171 45.3921 100.211 45.1243 100.298C44.8564 100.386 44.6108 100.52 44.4015 100.692C44.1922 100.864 44.0235 101.071 43.9049 101.301L40.8426 107.079Z" fill="white"/>
<path d="M42.7191 83.1367H108.463C108.85 83.1374 109.226 83.0124 109.534 82.781C109.841 82.5495 110.063 82.2245 110.165 81.8561L119.866 46.9238C119.927 46.7025 119.943 46.4715 119.914 46.244C119.885 46.0164 119.81 45.7968 119.695 45.5976C119.462 45.1954 119.077 44.901 118.624 44.779C118.172 44.6571 117.688 44.7177 117.281 44.9474C116.874 45.1772 116.575 45.5574 116.452 46.0042L107.102 79.656H44.1871L33.9207 17.2294C33.8618 16.8673 33.6886 16.5328 33.4259 16.2735C33.1632 16.0142 32.8244 15.8433 32.4576 15.7851L14.3975 12.7473C13.9568 12.7102 13.518 12.8378 13.168 13.1048C12.818 13.3718 12.5823 13.7587 12.5075 14.189C12.4327 14.6194 12.5242 15.0617 12.7641 15.4286C13.0039 15.7955 13.3745 16.0602 13.8025 16.1702L30.6433 19.0058L40.973 81.6731C41.0403 82.0822 41.253 82.4541 41.573 82.7224C41.893 82.9906 42.2993 83.1375 42.7191 83.1367Z" fill="white"/>
<path d="M118.18 48.3094C118.629 48.307 119.06 48.1341 119.385 47.8262C119.71 47.5182 119.903 47.0986 119.926 46.6536C119.948 46.2086 119.798 45.772 119.506 45.4334C119.214 45.0949 118.802 44.8802 118.355 44.8334L35.9083 36.4622C35.6784 36.439 35.4462 36.461 35.2249 36.5268C35.0036 36.5927 34.7976 36.7011 34.6185 36.8459C34.4395 36.9907 34.291 37.169 34.1814 37.3708C34.0719 37.5725 34.0035 37.7936 33.9802 38.0215C33.9569 38.2494 33.979 38.4797 34.0454 38.6991C34.1118 38.9185 34.2212 39.1228 34.3672 39.3004C34.5132 39.4779 34.6931 39.6251 34.8966 39.7337C35.1 39.8423 35.323 39.9102 35.5529 39.9333L117.999 48.2949C118.059 48.3047 118.119 48.3095 118.18 48.3094V48.3094Z" fill="white"/>
<path d="M35.7243 101.662H106.409C106.858 101.638 107.281 101.445 107.59 101.122C107.899 100.799 108.072 100.371 108.072 99.9258C108.072 99.4805 107.899 99.0523 107.59 98.7292C107.281 98.4062 106.858 98.2131 106.409 98.1897H38.2595L44.4593 81.862C44.554 81.6458 44.6033 81.4128 44.6043 81.1771C44.6052 80.9414 44.5578 80.708 44.4649 80.4911C44.372 80.2741 44.2355 80.0782 44.0638 79.9151C43.8921 79.752 43.6887 79.6252 43.4659 79.5424C43.2432 79.4596 43.0058 79.4226 42.7682 79.4335C42.5306 79.4444 42.2977 79.5031 42.0836 79.606C41.8696 79.7088 41.6789 79.8537 41.5232 80.0319C41.3674 80.21 41.2498 80.4176 41.1776 80.6422L34.081 99.3279C33.9825 99.591 33.9496 99.8738 33.985 100.152C34.0205 100.431 34.1232 100.696 34.2846 100.927C34.4465 101.156 34.6621 101.342 34.9129 101.47C35.1637 101.598 35.4422 101.664 35.7243 101.662V101.662Z" fill="white"/>
<path d="M114.461 60.1655C114.911 60.1668 115.345 59.9908 115.672 59.6739C116 59.357 116.196 58.9235 116.22 58.4627C116.245 58.002 116.095 57.5493 115.803 57.1981C115.511 56.847 115.098 56.6242 114.65 56.5758L38.8288 50.5399C38.5983 50.5181 38.366 50.5438 38.1454 50.6155C37.9248 50.6872 37.7205 50.8034 37.5445 50.9572C37.3684 51.1111 37.2243 51.2995 37.1205 51.5113C37.0167 51.7231 36.9554 51.9541 36.9402 52.1905C36.9054 52.6658 37.056 53.1357 37.3591 53.4974C37.6622 53.859 38.0929 54.0828 38.5569 54.1196L114.354 60.1605L114.461 60.1655Z" fill="white"/>
<path d="M110.817 73.5036C111.266 73.4906 111.693 73.2961 112.01 72.9605C112.326 72.6249 112.508 72.1739 112.518 71.701C112.527 71.2281 112.363 70.7695 112.06 70.4204C111.757 70.0713 111.338 69.8583 110.889 69.8257L41.037 66.8396C40.8029 66.8213 40.5677 66.8528 40.3455 66.9322C40.1232 67.0116 39.9184 67.1372 39.7432 67.3017C39.568 67.4662 39.4261 67.6661 39.3258 67.8895C39.2256 68.113 39.1691 68.3553 39.1597 68.6022C39.1503 68.8491 39.1882 69.0955 39.2711 69.3267C39.354 69.5578 39.4803 69.7691 39.6424 69.9478C39.8045 70.1265 39.9991 70.269 40.2146 70.3669C40.4301 70.4648 40.6621 70.516 40.8968 70.5175L110.749 73.5036H110.817Z" fill="white"/>
<path d="M98.7294 83.1367C99.1375 83.135 99.5326 82.9979 99.8486 82.7482C100.165 82.4985 100.382 82.1514 100.465 81.765L108.009 46.0336C108.073 45.807 108.088 45.57 108.054 45.3374C108.02 45.1048 107.936 44.8815 107.809 44.6813C107.682 44.4811 107.514 44.3083 107.314 44.1736C107.115 44.0389 106.89 43.9451 106.652 43.8981C106.414 43.851 106.168 43.8517 105.93 43.9002C105.693 43.9486 105.468 44.0437 105.269 44.1796C105.071 44.3155 104.904 44.4893 104.778 44.6902C104.652 44.8912 104.57 45.115 104.537 45.3478L96.9935 81.0791C96.9464 81.2996 96.9447 81.5269 96.9885 81.748C97.0323 81.9691 97.1208 82.1796 97.2488 82.3676C97.3769 82.5556 97.5421 82.7173 97.7348 82.8435C97.9276 82.9697 98.1442 83.058 98.3723 83.1031C98.4899 83.1258 98.6095 83.1371 98.7294 83.1367V83.1367Z" fill="white"/>
<path d="M86.9179 83.1366C87.3497 83.1349 87.7667 82.9864 88.0946 82.7175C88.4224 82.4486 88.6396 82.0769 88.7074 81.6688L94.7224 44.3124C94.7749 43.8668 94.6453 43.419 94.3606 43.0628C94.0759 42.7067 93.6583 42.4697 93.1952 42.4015C92.7321 42.3333 92.2593 42.4392 91.8759 42.697C91.4926 42.9549 91.2283 43.3446 91.1384 43.7847L85.1235 81.1364C85.082 81.3842 85.0974 81.6376 85.1686 81.8791C85.2399 82.1206 85.3653 82.3443 85.5361 82.5347C85.7069 82.7251 85.919 82.8776 86.1576 82.9815C86.3963 83.0855 86.6557 83.1384 86.9179 83.1366V83.1366Z" fill="white"/>
<path d="M75.7275 83.1367C76.169 83.1375 76.5941 82.9692 76.9156 82.6664C77.2371 82.3637 77.4305 81.9494 77.4563 81.5085L79.9102 42.745C79.9245 42.5176 79.8939 42.2896 79.8201 42.0741C79.7462 41.8585 79.6306 41.6596 79.4799 41.4888C79.3291 41.318 79.1462 41.1785 78.9415 41.0784C78.7368 40.9784 78.5144 40.9196 78.2871 40.9055C78.0583 40.8859 77.828 40.9128 77.6099 40.9845C77.3919 41.0563 77.1906 41.1716 77.0183 41.3233C76.846 41.475 76.7062 41.66 76.6073 41.8672C76.5084 42.0744 76.4525 42.2995 76.443 42.5289L73.989 81.2924C73.9601 81.7522 74.1148 82.2046 74.4191 82.5504C74.7234 82.8962 75.1525 83.1071 75.6122 83.1367H75.7275Z" fill="white"/>
<path d="M64.3525 83.1367C64.7448 83.1367 65.1212 82.9538 65.399 82.628C65.6768 82.3023 65.8334 81.8604 65.8345 81.3991V41.1597C65.8345 40.6976 65.6784 40.2544 65.4004 39.9276C65.1225 39.6008 64.7456 39.4173 64.3525 39.4173C63.9594 39.4173 63.5825 39.6008 63.3046 39.9276C63.0266 40.2544 62.8705 40.6976 62.8705 41.1597V81.3991C62.8716 81.8604 63.0282 82.3023 63.306 82.628C63.5838 82.9538 63.9602 83.1367 64.3525 83.1367V83.1367Z" fill="white"/>
<path d="M53.7135 83.1331C53.7777 83.1379 53.8421 83.1379 53.9063 83.1331C54.1346 83.1087 54.3557 83.0396 54.5569 82.9299C54.7582 82.8202 54.9356 82.672 55.079 82.4938C55.2224 82.3156 55.3289 82.111 55.3925 81.8918C55.456 81.6725 55.4752 81.443 55.4491 81.2163L50.7919 39.4775C50.7362 39.022 50.503 38.6063 50.1425 38.3196C49.782 38.0329 49.3228 37.8981 48.8634 37.9441C48.6352 37.9685 48.4141 38.0376 48.2128 38.1473C48.0115 38.257 47.8341 38.4052 47.6907 38.5834C47.5473 38.7615 47.4408 38.9661 47.3773 39.1854C47.3138 39.4046 47.2945 39.6342 47.3206 39.8609L51.9779 81.5853C52.0232 82.011 52.2257 82.4049 52.5463 82.6908C52.8669 82.9767 53.2828 83.1343 53.7135 83.1331V83.1331Z" fill="white"/>
<path d="M11.0306 14.3355C10.9225 15.0555 11.1031 15.7892 11.5329 16.3753C11.9627 16.9614 12.6064 17.3519 13.3225 17.461L30.8308 20.1199C31.5448 20.2289 32.2727 20.0493 32.8554 19.6203C33.438 19.1912 33.8279 18.5477 33.9399 17.8305C33.9941 17.4736 33.9779 17.1095 33.892 16.759C33.8061 16.4084 33.6524 16.0783 33.4395 15.7876C33.2266 15.4968 32.9589 15.2511 32.6514 15.0645C32.344 14.8779 32.003 14.7541 31.648 14.7001L14.1397 12.0315C13.785 11.977 13.4231 11.9934 13.0747 12.0797C12.7263 12.1661 12.3983 12.3207 12.1095 12.5348C11.8207 12.7488 11.5767 13.0181 11.3916 13.3271C11.2064 13.6361 11.0838 13.9788 11.0306 14.3355V14.3355Z" fill="#8ACD55"/>
</g>
<g filter="url(#filter1_d_16_142)">
<path d="M151.977 64.6129C151.707 66.2182 151.572 67.4444 151.572 68.2917C151.572 72.617 152.247 75.8498 153.596 77.9901C150.898 79.9967 148.087 81 145.163 81C142.24 81 140.148 80.1751 138.889 78.5252C137.63 76.8308 137 74.3337 137 71.034C137 67.6897 138.417 58.2588 141.25 42.7412L137.675 35.5844C142.757 32.3293 147.39 30.7018 151.572 30.7018C152.742 30.7018 154.024 30.9247 155.418 31.3706C156.812 31.7719 157.802 32.2401 158.386 32.7752C161.715 31.4821 164.796 30.8355 167.629 30.8355C171.857 30.8355 175.185 32.307 177.614 35.25C180.088 38.1484 181.324 41.671 181.324 45.818C181.324 50.8121 179.503 55.2712 175.86 59.1952C174.106 61.1126 171.744 62.651 168.776 63.8103C165.807 64.9697 162.772 65.5493 159.668 65.5493C156.61 65.5493 154.046 65.2372 151.977 64.6129ZM153.259 56.9879C153.889 57.1217 154.541 57.1886 155.215 57.1886C158.094 57.1886 160.658 56.1853 162.906 54.1787C165.155 52.1722 166.28 49.6974 166.28 46.7544C166.28 44.7032 165.673 42.9642 164.458 41.5373C163.289 40.1104 161.625 39.3969 159.466 39.3969C158.566 39.3969 157.532 39.5753 156.362 39.932C155.463 46.0409 154.428 51.7262 153.259 56.9879Z" fill="white"/>
<path d="M206.812 28.5614C206.812 30.2558 205.913 31.7273 204.114 32.9759C202.315 34.1798 200.268 34.7818 197.974 34.7818C195.681 34.7818 193.859 34.3359 192.51 33.4441C191.206 32.5523 190.553 31.3483 190.553 29.8322C190.553 27.7811 191.52 26.1758 193.454 25.0164C195.388 23.8571 197.435 23.2774 199.594 23.2774C201.753 23.2774 203.484 23.7233 204.788 24.6151C206.138 25.5069 206.812 26.8224 206.812 28.5614ZM193.657 80.9331C190.868 80.9331 188.844 80.242 187.585 78.8596C186.326 77.4773 185.696 75.3816 185.696 72.5724C185.696 69.7186 187.135 62.1159 190.014 49.7643L186.236 44.1458C191.858 40.8015 196.288 39.1294 199.526 39.1294C201.37 39.1294 202.675 39.5307 203.439 40.3333C204.204 41.0914 204.586 42.3399 204.586 44.0789C204.586 44.7478 203.754 48.6718 202.09 55.8509C200.426 63.03 199.594 68.1579 199.594 71.2347C199.594 74.3114 200.291 76.4518 201.685 77.6557C199.166 79.8406 196.49 80.9331 193.657 80.9331Z" fill="white"/>
<path d="M210.502 63.3421C210.502 56.2076 212.976 50.3885 217.924 45.8849C222.871 41.3812 229.1 39.1294 236.611 39.1294C240.479 39.1294 243.538 39.8651 245.786 41.3366C248.035 42.7635 249.16 44.5694 249.16 46.7544C249.16 48.9393 248.395 50.6115 246.866 51.7708C245.382 52.9302 243.74 53.5099 241.941 53.5099C240.187 53.5099 238.568 53.0417 237.084 52.1053C235.644 51.1689 234.52 49.8088 233.71 48.0252C230.877 49.1846 228.628 51.2357 226.964 54.1787C225.345 57.1217 224.535 60.0647 224.535 63.0077C224.535 65.9507 225.12 68.3363 226.289 70.1645C227.459 71.9927 228.988 72.9068 230.877 72.9068C232.766 72.9068 234.295 72.2825 235.464 71.034C236.679 69.7855 237.286 67.9349 237.286 65.4825C243.852 65.4825 247.136 67.0208 247.136 70.0976C247.136 72.7284 245.472 75.2032 242.143 77.5219C238.815 79.7961 234.43 80.9331 228.988 80.9331C223.546 80.9331 219.093 79.3279 215.63 76.1173C212.211 72.8622 210.502 68.6038 210.502 63.3421Z" fill="white"/>
<path d="M260.203 37.6579L256.425 32.307C262.047 29.0519 266.478 27.4243 269.716 27.4243C271.56 27.4243 272.864 27.8034 273.629 28.5614C274.393 29.2749 274.776 30.5011 274.776 32.2401C274.776 33.9346 274.483 36.3202 273.899 39.3969C273.359 42.4737 272.617 46.1078 271.672 50.2993C270.773 54.4909 270.121 57.8575 269.716 60.3991L273.966 56.6535C274.371 56.2968 275.023 55.7394 275.923 54.9814C276.867 54.1787 277.519 53.5991 277.879 53.2423C278.284 52.8856 278.824 52.3951 279.498 51.7708C280.173 51.102 280.668 50.5446 280.983 50.0987C281.297 49.6528 281.657 49.14 282.062 48.5603C282.692 47.5793 283.007 46.4868 283.007 45.2829C283.007 44.0344 282.827 42.9419 282.467 42.0055C285.66 40.0881 288.674 39.1294 291.507 39.1294C293.396 39.1294 294.903 39.7314 296.027 40.9353C297.152 42.0947 297.714 43.7891 297.714 46.0186C297.714 48.2482 296.679 50.5 294.61 52.7741C292.586 55.0037 290.068 56.9656 287.054 58.6601C288.449 63.2529 290.248 67.4667 292.452 71.3015C294.655 75.1363 296.499 77.4327 297.984 78.1908C296.185 80.019 293.396 80.9331 289.618 80.9331C286.83 80.9331 284.468 79.9967 282.534 78.1239C280.645 76.2511 278.959 73.1743 277.474 68.8936L275.788 64.1447L268.839 67.5559C268.794 68.0464 268.771 68.7822 268.771 69.7632C268.771 73.4642 269.469 76.095 270.863 77.6557C267.714 79.8406 264.858 80.9331 262.295 80.9331C259.731 80.9331 257.842 80.1082 256.628 78.4583C255.458 76.7639 254.874 74.4452 254.874 71.5022C254.874 68.5592 255.706 62.5395 257.37 53.443C259.034 44.3465 259.979 39.0848 260.203 37.6579Z" fill="white"/>
<path d="M307.809 35.5844C306.819 35.5844 305.965 35.1831 305.245 34.3805C304.57 33.5333 304.166 32.2401 304.031 30.5011C305.965 30.0552 308.101 28.9404 310.44 27.1568C312.824 25.3732 315.072 23.7456 317.186 22.2741C319.345 20.758 321.257 20 322.921 20C325.44 20 326.699 22.1181 326.699 26.3542C326.699 28.0932 326.474 29.7208 326.024 31.2368C325.395 31.1477 324.877 31.1031 324.473 31.1031C322.404 31.1031 319.57 31.8611 315.972 33.3772C312.419 34.8487 309.698 35.5844 307.809 35.5844Z" fill="#8ACD55"/>
<path d="M344.724 80.9331C338.563 80.9331 333.795 79.3501 330.422 76.1842C327.094 73.0183 325.429 68.7376 325.429 63.3421C325.429 56.163 327.903 50.3439 332.851 45.8849C337.843 41.3812 344.095 39.1294 351.606 39.1294C355.789 39.1294 358.959 40.0658 361.118 41.9386C363.277 43.7668 364.357 46.197 364.357 49.2292C364.357 53.3761 362.31 56.8319 358.217 59.5965C354.169 62.3165 347.895 63.6988 339.395 63.7434C339.53 66.5972 340.182 68.849 341.351 70.4989C342.521 72.1042 343.982 72.9068 345.736 72.9068C347.49 72.9068 348.997 72.3271 350.256 71.1678C351.561 70.0084 352.213 68.1133 352.213 65.4825C358.78 65.4825 362.063 67.0208 362.063 70.0976C362.063 72.7284 360.444 75.2032 357.205 77.5219C353.967 79.7961 349.807 80.9331 344.724 80.9331ZM350.459 46.955C348.165 46.955 346.051 48.0921 344.117 50.3662C342.228 52.6404 340.856 55.3158 340.002 58.3925C344.499 58.0358 347.873 57.0325 350.122 55.3827C352.415 53.6882 353.562 51.9046 353.562 50.0318C353.562 49.14 353.27 48.4042 352.685 47.8246C352.145 47.2449 351.403 46.955 350.459 46.955Z" fill="white"/>
<path d="M413.486 51.0351L414.161 51.3695C418.973 43.2094 424.865 39.1294 431.837 39.1294C437.279 39.1294 440 41.8271 440 47.2226C440 49.5413 439.325 53.4653 437.976 58.9945C436.672 64.5238 436.02 68.693 436.02 71.5022C436.02 74.3114 436.492 76.3626 437.436 77.6557C435.053 79.8406 432.534 80.9331 429.88 80.9331C424.708 80.9331 422.122 78.1685 422.122 72.6393C422.122 70.5881 422.796 67.11 424.146 62.205C425.495 57.3001 426.17 54.1118 426.17 52.6404C426.17 50.6338 425.405 49.6305 423.876 49.6305C422.617 49.6305 421.2 50.1879 419.626 51.3026C418.096 52.3728 416.612 53.8443 415.173 55.7171C413.779 57.5453 412.587 59.8863 411.597 62.7401C410.653 65.5493 410.181 68.4254 410.181 71.3684C410.181 74.2668 410.653 76.3626 411.597 77.6557C409.214 79.8406 406.695 80.9331 404.041 80.9331C398.869 80.9331 396.283 78.1685 396.283 72.6393C396.283 70.5881 396.957 67.11 398.307 62.205C399.656 57.3001 400.331 54.1118 400.331 52.6404C400.331 50.6338 399.566 49.6305 398.037 49.6305C396.778 49.6305 395.361 50.1879 393.787 51.3026C392.257 52.3728 390.773 53.8443 389.334 55.7171C387.94 57.5453 386.748 59.8863 385.758 62.7401C384.814 65.5493 384.341 68.4254 384.341 71.3684C384.341 74.2668 384.814 76.3626 385.758 77.6557C383.375 79.8406 380.856 80.9331 378.202 80.9331C373.03 80.9331 370.444 78.1685 370.444 72.6393C370.444 70.8556 370.894 67.3999 371.793 62.2719C372.738 57.144 373.705 52.462 374.694 48.2259L371.186 42.875C375.639 40.3779 379.754 39.1294 383.532 39.1294C387.31 39.1294 389.199 40.8238 389.199 44.2127C389.199 46.4422 388.682 48.7164 387.647 51.0351L388.322 51.3695C393.134 43.2094 399.026 39.1294 405.998 39.1294C408.516 39.1294 410.495 39.7537 411.935 41.0022C413.419 42.2507 414.161 44.1235 414.161 46.6206C414.161 47.9583 413.936 49.4298 413.486 51.0351Z" fill="white"/>
</g>
<g filter="url(#filter2_d_16_142)">
<path d="M198.012 102.441C198.012 103.457 197.758 104.324 197.25 105.043C196.75 105.754 196.047 106.297 195.141 106.672C194.234 107.047 193.168 107.234 191.941 107.234C191.293 107.234 190.68 107.203 190.102 107.141C189.523 107.078 188.992 106.988 188.508 106.871C188.023 106.754 187.598 106.609 187.23 106.438V104.527C187.816 104.77 188.531 104.996 189.375 105.207C190.219 105.41 191.102 105.512 192.023 105.512C192.883 105.512 193.609 105.398 194.203 105.172C194.797 104.938 195.246 104.605 195.551 104.176C195.863 103.738 196.02 103.215 196.02 102.605C196.02 102.02 195.891 101.531 195.633 101.141C195.375 100.742 194.945 100.383 194.344 100.062C193.75 99.7344 192.938 99.3867 191.906 99.0195C191.18 98.7617 190.539 98.4805 189.984 98.1758C189.43 97.8633 188.965 97.5117 188.59 97.1211C188.215 96.7305 187.93 96.2773 187.734 95.7617C187.547 95.2461 187.453 94.6562 187.453 93.9922C187.453 93.0781 187.684 92.2969 188.145 91.6484C188.613 90.9922 189.258 90.4922 190.078 90.1484C190.906 89.7969 191.855 89.6211 192.926 89.6211C193.84 89.6211 194.684 89.707 195.457 89.8789C196.238 90.0508 196.953 90.2812 197.602 90.5703L196.98 92.2812C196.363 92.0234 195.707 91.8086 195.012 91.6367C194.324 91.4648 193.613 91.3789 192.879 91.3789C192.145 91.3789 191.523 91.4883 191.016 91.707C190.516 91.918 190.133 92.2188 189.867 92.6094C189.602 93 189.469 93.4648 189.469 94.0039C189.469 94.6055 189.594 95.1055 189.844 95.5039C190.102 95.9023 190.508 96.2578 191.062 96.5703C191.625 96.875 192.367 97.1953 193.289 97.5312C194.297 97.8984 195.152 98.2891 195.855 98.7031C196.559 99.1094 197.094 99.6094 197.461 100.203C197.828 100.789 198.012 101.535 198.012 102.441ZM203.168 88.7656V94.2148C203.168 94.5273 203.16 94.8438 203.145 95.1641C203.129 95.4766 203.102 95.7656 203.062 96.0312H203.191C203.457 95.5781 203.793 95.1992 204.199 94.8945C204.613 94.582 205.082 94.3477 205.605 94.1914C206.129 94.0273 206.684 93.9453 207.27 93.9453C208.301 93.9453 209.16 94.1094 209.848 94.4375C210.543 94.7656 211.062 95.2734 211.406 95.9609C211.758 96.6484 211.934 97.5391 211.934 98.6328V107H210.012V98.7617C210.012 97.6914 209.766 96.8906 209.273 96.3594C208.789 95.8281 208.043 95.5625 207.035 95.5625C206.082 95.5625 205.32 95.7461 204.75 96.1133C204.188 96.4727 203.781 97.0039 203.531 97.707C203.289 98.4102 203.168 99.2695 203.168 100.285V107H201.223V88.7656H203.168ZM227.016 100.555C227.016 101.609 226.879 102.551 226.605 103.379C226.332 104.207 225.938 104.906 225.422 105.477C224.906 106.047 224.281 106.484 223.547 106.789C222.82 107.086 221.996 107.234 221.074 107.234C220.215 107.234 219.426 107.086 218.707 106.789C217.996 106.484 217.379 106.047 216.855 105.477C216.34 104.906 215.938 104.207 215.648 103.379C215.367 102.551 215.227 101.609 215.227 100.555C215.227 99.1484 215.465 97.9531 215.941 96.9688C216.418 95.9766 217.098 95.2227 217.98 94.707C218.871 94.1836 219.93 93.9219 221.156 93.9219C222.328 93.9219 223.352 94.1836 224.227 94.707C225.109 95.2305 225.793 95.9883 226.277 96.9805C226.77 97.9648 227.016 99.1562 227.016 100.555ZM217.242 100.555C217.242 101.586 217.379 102.48 217.652 103.238C217.926 103.996 218.348 104.582 218.918 104.996C219.488 105.41 220.223 105.617 221.121 105.617C222.012 105.617 222.742 105.41 223.312 104.996C223.891 104.582 224.316 103.996 224.59 103.238C224.863 102.48 225 101.586 225 100.555C225 99.5312 224.863 98.6484 224.59 97.9062C224.316 97.1562 223.895 96.5781 223.324 96.1719C222.754 95.7656 222.016 95.5625 221.109 95.5625C219.773 95.5625 218.793 96.0039 218.168 96.8867C217.551 97.7695 217.242 98.9922 217.242 100.555ZM236.414 93.9219C238.016 93.9219 239.293 94.4727 240.246 95.5742C241.199 96.6758 241.676 98.332 241.676 100.543C241.676 102.004 241.457 103.23 241.02 104.223C240.582 105.215 239.965 105.965 239.168 106.473C238.379 106.98 237.445 107.234 236.367 107.234C235.688 107.234 235.09 107.145 234.574 106.965C234.059 106.785 233.617 106.543 233.25 106.238C232.883 105.934 232.578 105.602 232.336 105.242H232.195C232.219 105.547 232.246 105.914 232.277 106.344C232.316 106.773 232.336 107.148 232.336 107.469V112.742H230.379V94.1562H231.984L232.242 96.0547H232.336C232.586 95.6641 232.891 95.3086 233.25 94.9883C233.609 94.6602 234.047 94.4023 234.562 94.2148C235.086 94.0195 235.703 93.9219 236.414 93.9219ZM236.074 95.5625C235.184 95.5625 234.465 95.7344 233.918 96.0781C233.379 96.4219 232.984 96.9375 232.734 97.625C232.484 98.3047 232.352 99.1602 232.336 100.191V100.566C232.336 101.652 232.453 102.57 232.688 103.32C232.93 104.07 233.324 104.641 233.871 105.031C234.426 105.422 235.168 105.617 236.098 105.617C236.895 105.617 237.559 105.402 238.09 104.973C238.621 104.543 239.016 103.945 239.273 103.18C239.539 102.406 239.672 101.52 239.672 100.52C239.672 99.0039 239.375 97.8008 238.781 96.9102C238.195 96.0117 237.293 95.5625 236.074 95.5625ZM251.109 93.9219C252.711 93.9219 253.988 94.4727 254.941 95.5742C255.895 96.6758 256.371 98.332 256.371 100.543C256.371 102.004 256.152 103.23 255.715 104.223C255.277 105.215 254.66 105.965 253.863 106.473C253.074 106.98 252.141 107.234 251.062 107.234C250.383 107.234 249.785 107.145 249.27 106.965C248.754 106.785 248.312 106.543 247.945 106.238C247.578 105.934 247.273 105.602 247.031 105.242H246.891C246.914 105.547 246.941 105.914 246.973 106.344C247.012 106.773 247.031 107.148 247.031 107.469V112.742H245.074V94.1562H246.68L246.938 96.0547H247.031C247.281 95.6641 247.586 95.3086 247.945 94.9883C248.305 94.6602 248.742 94.4023 249.258 94.2148C249.781 94.0195 250.398 93.9219 251.109 93.9219ZM250.77 95.5625C249.879 95.5625 249.16 95.7344 248.613 96.0781C248.074 96.4219 247.68 96.9375 247.43 97.625C247.18 98.3047 247.047 99.1602 247.031 100.191V100.566C247.031 101.652 247.148 102.57 247.383 103.32C247.625 104.07 248.02 104.641 248.566 105.031C249.121 105.422 249.863 105.617 250.793 105.617C251.59 105.617 252.254 105.402 252.785 104.973C253.316 104.543 253.711 103.945 253.969 103.18C254.234 102.406 254.367 101.52 254.367 100.52C254.367 99.0039 254.07 97.8008 253.477 96.9102C252.891 96.0117 251.988 95.5625 250.77 95.5625ZM261.715 94.1562V107H259.77V94.1562H261.715ZM260.766 89.3516C261.086 89.3516 261.359 89.457 261.586 89.668C261.82 89.8711 261.938 90.1914 261.938 90.6289C261.938 91.0586 261.82 91.3789 261.586 91.5898C261.359 91.8008 261.086 91.9062 260.766 91.9062C260.43 91.9062 260.148 91.8008 259.922 91.5898C259.703 91.3789 259.594 91.0586 259.594 90.6289C259.594 90.1914 259.703 89.8711 259.922 89.668C260.148 89.457 260.43 89.3516 260.766 89.3516ZM271.922 93.9219C273.445 93.9219 274.598 94.2969 275.379 95.0469C276.16 95.7891 276.551 96.9844 276.551 98.6328V107H274.629V98.7617C274.629 97.6914 274.383 96.8906 273.891 96.3594C273.406 95.8281 272.66 95.5625 271.652 95.5625C270.23 95.5625 269.23 95.9648 268.652 96.7695C268.074 97.5742 267.785 98.7422 267.785 100.273V107H265.84V94.1562H267.41L267.703 96.0078H267.809C268.082 95.5547 268.43 95.1758 268.852 94.8711C269.273 94.5586 269.746 94.3242 270.27 94.168C270.793 94.0039 271.344 93.9219 271.922 93.9219ZM284.145 112.766C282.457 112.766 281.156 112.449 280.242 111.816C279.328 111.191 278.871 110.312 278.871 109.18C278.871 108.375 279.125 107.688 279.633 107.117C280.148 106.547 280.859 106.168 281.766 105.98C281.43 105.824 281.141 105.59 280.898 105.277C280.664 104.965 280.547 104.605 280.547 104.199C280.547 103.73 280.676 103.32 280.934 102.969C281.199 102.609 281.602 102.266 282.141 101.938C281.469 101.664 280.922 101.203 280.5 100.555C280.086 99.8984 279.879 99.1367 279.879 98.2695C279.879 97.3477 280.07 96.5625 280.453 95.9141C280.836 95.2578 281.391 94.7578 282.117 94.4141C282.844 94.0703 283.723 93.8984 284.754 93.8984C284.98 93.8984 285.207 93.9102 285.434 93.9336C285.668 93.9492 285.891 93.9766 286.102 94.0156C286.312 94.0469 286.496 94.0859 286.652 94.1328H291.059V95.3867L288.691 95.6797C288.926 95.9844 289.121 96.3516 289.277 96.7812C289.434 97.2109 289.512 97.6875 289.512 98.2109C289.512 99.4922 289.078 100.512 288.211 101.27C287.344 102.02 286.152 102.395 284.637 102.395C284.277 102.395 283.91 102.363 283.535 102.301C283.152 102.512 282.859 102.746 282.656 103.004C282.461 103.262 282.363 103.559 282.363 103.895C282.363 104.145 282.438 104.344 282.586 104.492C282.742 104.641 282.965 104.75 283.254 104.82C283.543 104.883 283.891 104.914 284.297 104.914H286.559C287.957 104.914 289.027 105.207 289.77 105.793C290.52 106.379 290.895 107.234 290.895 108.359C290.895 109.781 290.316 110.871 289.16 111.629C288.004 112.387 286.332 112.766 284.145 112.766ZM284.203 111.242C285.266 111.242 286.145 111.133 286.84 110.914C287.543 110.703 288.066 110.395 288.41 109.988C288.762 109.59 288.938 109.113 288.938 108.559C288.938 108.043 288.82 107.652 288.586 107.387C288.352 107.129 288.008 106.957 287.555 106.871C287.102 106.777 286.547 106.73 285.891 106.73H283.664C283.086 106.73 282.582 106.82 282.152 107C281.723 107.18 281.391 107.445 281.156 107.797C280.93 108.148 280.816 108.586 280.816 109.109C280.816 109.805 281.109 110.332 281.695 110.691C282.281 111.059 283.117 111.242 284.203 111.242ZM284.707 100.977C285.637 100.977 286.336 100.742 286.805 100.273C287.273 99.8047 287.508 99.1211 287.508 98.2227C287.508 97.2617 287.27 96.543 286.793 96.0664C286.316 95.582 285.613 95.3398 284.684 95.3398C283.793 95.3398 283.105 95.5898 282.621 96.0898C282.145 96.582 281.906 97.3047 281.906 98.2578C281.906 99.1328 282.148 99.8047 282.633 100.273C283.117 100.742 283.809 100.977 284.707 100.977ZM300.117 107V89.8672H302.109V105.219H309.715V107H300.117ZM314.309 94.1562V107H312.363V94.1562H314.309ZM313.359 89.3516C313.68 89.3516 313.953 89.457 314.18 89.668C314.414 89.8711 314.531 90.1914 314.531 90.6289C314.531 91.0586 314.414 91.3789 314.18 91.5898C313.953 91.8008 313.68 91.9062 313.359 91.9062C313.023 91.9062 312.742 91.8008 312.516 91.5898C312.297 91.3789 312.188 91.0586 312.188 90.6289C312.188 90.1914 312.297 89.8711 312.516 89.668C312.742 89.457 313.023 89.3516 313.359 89.3516ZM326.742 103.484C326.742 104.305 326.535 104.996 326.121 105.559C325.715 106.113 325.129 106.531 324.363 106.812C323.605 107.094 322.699 107.234 321.645 107.234C320.746 107.234 319.969 107.164 319.312 107.023C318.656 106.883 318.082 106.684 317.59 106.426V104.633C318.113 104.891 318.738 105.125 319.465 105.336C320.191 105.547 320.934 105.652 321.691 105.652C322.801 105.652 323.605 105.473 324.105 105.113C324.605 104.754 324.855 104.266 324.855 103.648C324.855 103.297 324.754 102.988 324.551 102.723C324.355 102.449 324.023 102.188 323.555 101.938C323.086 101.68 322.438 101.398 321.609 101.094C320.789 100.781 320.078 100.473 319.477 100.168C318.883 99.8555 318.422 99.4766 318.094 99.0312C317.773 98.5859 317.613 98.0078 317.613 97.2969C317.613 96.2109 318.051 95.3789 318.926 94.8008C319.809 94.2148 320.965 93.9219 322.395 93.9219C323.168 93.9219 323.891 94 324.562 94.1562C325.242 94.3047 325.875 94.5078 326.461 94.7656L325.805 96.3242C325.273 96.0977 324.707 95.9062 324.105 95.75C323.504 95.5938 322.891 95.5156 322.266 95.5156C321.367 95.5156 320.676 95.6641 320.191 95.9609C319.715 96.2578 319.477 96.6641 319.477 97.1797C319.477 97.5781 319.586 97.9062 319.805 98.1641C320.031 98.4219 320.391 98.6641 320.883 98.8906C321.375 99.1172 322.023 99.3828 322.828 99.6875C323.633 99.9844 324.328 100.293 324.914 100.613C325.5 100.926 325.949 101.309 326.262 101.762C326.582 102.207 326.742 102.781 326.742 103.484ZM334.02 105.641C334.34 105.641 334.668 105.613 335.004 105.559C335.34 105.504 335.613 105.438 335.824 105.359V106.871C335.598 106.973 335.281 107.059 334.875 107.129C334.477 107.199 334.086 107.234 333.703 107.234C333.023 107.234 332.406 107.117 331.852 106.883C331.297 106.641 330.852 106.234 330.516 105.664C330.188 105.094 330.023 104.305 330.023 103.297V95.6797H328.195V94.7305L330.035 93.9688L330.809 91.1797H331.98V94.1562H335.742V95.6797H331.98V103.238C331.98 104.043 332.164 104.645 332.531 105.043C332.906 105.441 333.402 105.641 334.02 105.641ZM355.699 107L353.59 101.562H346.723L344.625 107H342.609L349.312 89.7969H351.105L357.762 107H355.699ZM352.992 99.793L350.988 94.3906C350.941 94.25 350.863 94.0195 350.754 93.6992C350.652 93.3789 350.547 93.0469 350.438 92.7031C350.328 92.3594 350.238 92.082 350.168 91.8711C350.09 92.1914 350.004 92.5117 349.91 92.832C349.824 93.1445 349.738 93.4375 349.652 93.7109C349.566 93.9766 349.492 94.2031 349.43 94.3906L347.391 99.793H352.992ZM365.883 93.9219C367.484 93.9219 368.762 94.4727 369.715 95.5742C370.668 96.6758 371.145 98.332 371.145 100.543C371.145 102.004 370.926 103.23 370.488 104.223C370.051 105.215 369.434 105.965 368.637 106.473C367.848 106.98 366.914 107.234 365.836 107.234C365.156 107.234 364.559 107.145 364.043 106.965C363.527 106.785 363.086 106.543 362.719 106.238C362.352 105.934 362.047 105.602 361.805 105.242H361.664C361.688 105.547 361.715 105.914 361.746 106.344C361.785 106.773 361.805 107.148 361.805 107.469V112.742H359.848V94.1562H361.453L361.711 96.0547H361.805C362.055 95.6641 362.359 95.3086 362.719 94.9883C363.078 94.6602 363.516 94.4023 364.031 94.2148C364.555 94.0195 365.172 93.9219 365.883 93.9219ZM365.543 95.5625C364.652 95.5625 363.934 95.7344 363.387 96.0781C362.848 96.4219 362.453 96.9375 362.203 97.625C361.953 98.3047 361.82 99.1602 361.805 100.191V100.566C361.805 101.652 361.922 102.57 362.156 103.32C362.398 104.07 362.793 104.641 363.34 105.031C363.895 105.422 364.637 105.617 365.566 105.617C366.363 105.617 367.027 105.402 367.559 104.973C368.09 104.543 368.484 103.945 368.742 103.18C369.008 102.406 369.141 101.52 369.141 100.52C369.141 99.0039 368.844 97.8008 368.25 96.9102C367.664 96.0117 366.762 95.5625 365.543 95.5625ZM380.578 93.9219C382.18 93.9219 383.457 94.4727 384.41 95.5742C385.363 96.6758 385.84 98.332 385.84 100.543C385.84 102.004 385.621 103.23 385.184 104.223C384.746 105.215 384.129 105.965 383.332 106.473C382.543 106.98 381.609 107.234 380.531 107.234C379.852 107.234 379.254 107.145 378.738 106.965C378.223 106.785 377.781 106.543 377.414 106.238C377.047 105.934 376.742 105.602 376.5 105.242H376.359C376.383 105.547 376.41 105.914 376.441 106.344C376.48 106.773 376.5 107.148 376.5 107.469V112.742H374.543V94.1562H376.148L376.406 96.0547H376.5C376.75 95.6641 377.055 95.3086 377.414 94.9883C377.773 94.6602 378.211 94.4023 378.727 94.2148C379.25 94.0195 379.867 93.9219 380.578 93.9219ZM380.238 95.5625C379.348 95.5625 378.629 95.7344 378.082 96.0781C377.543 96.4219 377.148 96.9375 376.898 97.625C376.648 98.3047 376.516 99.1602 376.5 100.191V100.566C376.5 101.652 376.617 102.57 376.852 103.32C377.094 104.07 377.488 104.641 378.035 105.031C378.59 105.422 379.332 105.617 380.262 105.617C381.059 105.617 381.723 105.402 382.254 104.973C382.785 104.543 383.18 103.945 383.438 103.18C383.703 102.406 383.836 101.52 383.836 100.52C383.836 99.0039 383.539 97.8008 382.945 96.9102C382.359 96.0117 381.457 95.5625 380.238 95.5625Z" fill="white"/>
</g>
<defs>
<filter id="filter0_d_16_142" x="9" y="12" width="116.928" height="111" filterUnits="userSpaceOnUse" color-interpolation-filters="sRGB">
<feFlood flood-opacity="0" result="BackgroundImageFix"/>
<feColorMatrix in="SourceAlpha" type="matrix" values="0 0 0 0 0 0 0 0 0 0 0 0 0 0 0 0 0 0 127 0" result="hardAlpha"/>
<feOffset dx="2" dy="4"/>
<feGaussianBlur stdDeviation="2"/>
<feComposite in2="hardAlpha" operator="out"/>
<feColorMatrix type="matrix" values="0 0 0 0 0 0 0 0 0 0 0 0 0 0 0 0 0 0 0.25 0"/>
<feBlend mode="normal" in2="BackgroundImageFix" result="effect1_dropShadow_16_142"/>
<feBlend mode="normal" in="SourceGraphic" in2="effect1_dropShadow_16_142" result="shape"/>
</filter>
<filter id="filter1_d_16_142" x="135" y="20" width="311" height="69" filterUnits="userSpaceOnUse" color-interpolation-filters="sRGB">
<feFlood flood-opacity="0" result="BackgroundImageFix"/>
<feColorMatrix in="SourceAlpha" type="matrix" values="0 0 0 0 0 0 0 0 0 0 0 0 0 0 0 0 0 0 127 0" result="hardAlpha"/>
<feOffset dx="2" dy="4"/>
<feGaussianBlur stdDeviation="2"/>
<feComposite in2="hardAlpha" operator="out"/>
<feColorMatrix type="matrix" values="0 0 0 0 0 0 0 0 0 0 0 0 0 0 0 0 0 0 0.25 0"/>
<feBlend mode="normal" in2="BackgroundImageFix" result="effect1_dropShadow_16_142"/>
<feBlend mode="normal" in="SourceGraphic" in2="effect1_dropShadow_16_142" result="shape"/>
</filter>
<filter id="filter2_d_16_142" x="183.23" y="88.7656" width="206.609" height="32" filterUnits="userSpaceOnUse" color-interpolation-filters="sRGB">
<feFlood flood-opacity="0" result="BackgroundImageFix"/>
<feColorMatrix in="SourceAlpha" type="matrix" values="0 0 0 0 0 0 0 0 0 0 0 0 0 0 0 0 0 0 127 0" result="hardAlpha"/>
<feOffset dy="4"/>
<feGaussianBlur stdDeviation="2"/>
<feComposite in2="hardAlpha" operator="out"/>
<feColorMatrix type="matrix" values="0 0 0 0 0 0 0 0 0 0 0 0 0 0 0 0 0 0 0.25 0"/>
<feBlend mode="normal" in2="BackgroundImageFix" result="effect1_dropShadow_16_142"/>
<feBlend mode="normal" in="SourceGraphic" in2="effect1_dropShadow_16_142" result="shape"/>
</filter>
</defs>
</svg>
