<svg xmlns="http://www.w3.org/2000/svg" viewBox="0 0 560 288"><defs><style>.cls-1{fill:#657576;}.cls-2{fill:#b5c5c6;}.cls-3{fill:#95a5a6;}.cls-4{fill:#5f9653;}.cls-5{font-size:104.76px;fill:#511e7a;font-family:Lemon-Regular, Lemon;}.cls-6{font-size:32.25px;font-family:MyriadPro-Regular, Myriad Pro;}.cls-7{letter-spacing:0em;}</style></defs><g id="Ebene_2" data-name="Ebene 2"><path class="cls-1" d="M172.13,271.5A12.51,12.51,0,1,0,184.64,259,12.51,12.51,0,0,0,172.13,271.5Z"/><path class="cls-2" d="M176.75,271.5a7.89,7.89,0,1,0,7.89-7.9A7.88,7.88,0,0,0,176.75,271.5Z"/><path class="cls-3" d="M178.9,270.76a5.74,5.74,0,1,0,5.74-5.75A5.74,5.74,0,0,0,178.9,270.76Z"/><path class="cls-3" d="M180.9,268a4.09,4.09,0,0,0,2,5.43h0a4.08,4.08,0,0,0,5.42-2L194,259.21a4.08,4.08,0,0,0-2-5.43h0a4.08,4.08,0,0,0-5.43,2Z"/><path class="cls-1" d="M56.54,271.5A12.51,12.51,0,1,0,69.05,259,12.51,12.51,0,0,0,56.54,271.5Z"/><path class="cls-2" d="M61.16,271.5a7.89,7.89,0,1,0,7.89-7.9A7.88,7.88,0,0,0,61.16,271.5Z"/><path class="cls-3" d="M63.31,270.76A5.74,5.74,0,1,0,69.05,265,5.74,5.74,0,0,0,63.31,270.76Z"/><path class="cls-3" d="M65.32,268a4.08,4.08,0,0,0,2,5.43h0a4.1,4.1,0,0,0,5.43-2l5.75-12.27a4.09,4.09,0,0,0-2-5.43h0a4.07,4.07,0,0,0-5.42,2Z"/><path class="cls-3" d="M68.82,218.1h134.8a3.61,3.61,0,0,0,3.49-2.66L227,142.88a3.61,3.61,0,1,0-7-1.91l-19.17,69.9h-129L50.78,81.2a3.62,3.62,0,0,0-3-3L10.75,71.89A3.62,3.62,0,0,0,9.53,79l34.53,5.89L65.24,215.06A3.62,3.62,0,0,0,68.82,218.1Z"/><path class="cls-3" d="M223.52,145.54a3.61,3.61,0,0,0,.36-7.2L54.55,121a3.61,3.61,0,1,0-.73,7.19l169.33,17.32A2.23,2.23,0,0,0,223.52,145.54Z"/><path class="cls-3" d="M54.18,257H200a3.62,3.62,0,0,0,0-7.23H59.41l12.79-34a3.62,3.62,0,1,0-6.77-2.54L50.79,252.14a3.63,3.63,0,0,0,.42,3.33A3.59,3.59,0,0,0,54.18,257Z"/><path class="cls-3" d="M216.22,169.85a3.62,3.62,0,0,0,.39-7.22L60.44,150.49a3.57,3.57,0,0,0-3.89,3.32,3.62,3.62,0,0,0,3.33,3.88L216,169.84Z"/><path class="cls-3" d="M209.14,198a3.62,3.62,0,0,0,.15-7.23L64.73,184.9a3.62,3.62,0,1,0-.29,7.23L209,198Z"/><path class="cls-3" d="M184.61,218.1a3.59,3.59,0,0,0,3.5-2.86l15.21-74.5a3.58,3.58,0,1,0-7-1.43l-15.21,74.5a3.57,3.57,0,0,0,2.78,4.22A3.61,3.61,0,0,0,184.61,218.1Z"/><path class="cls-3" d="M160,218.1a3.63,3.63,0,0,0,3.57-3.06l12-77.88a3.62,3.62,0,0,0-7.15-1.1l-12,77.87A3.6,3.6,0,0,0,160,218.1Z"/><path class="cls-3" d="M137.11,218.1a3.6,3.6,0,0,0,3.6-3.39L145.82,134a3.61,3.61,0,0,0-3.38-3.83,3.54,3.54,0,0,0-3.84,3.38l-5.11,80.71a3.62,3.62,0,0,0,3.38,3.84Z"/><path class="cls-3" d="M113.32,218.1a3.62,3.62,0,0,0,3.62-3.61v-83.6a3.62,3.62,0,0,0-7.24,0v83.6A3.62,3.62,0,0,0,113.32,218.1Z"/><path class="cls-3" d="M91.81,218.1a2.68,2.68,0,0,0,.4,0,3.61,3.61,0,0,0,3.2-4L85.75,127a3.66,3.66,0,0,0-4-3.2,3.61,3.61,0,0,0-3.2,4l9.66,87.07A3.61,3.61,0,0,0,91.81,218.1Z"/><path class="cls-4" d="M3.12,74.81a5.65,5.65,0,0,0,4.74,6.43l36.21,5.47A5.65,5.65,0,0,0,50.5,82h0a5.65,5.65,0,0,0-4.74-6.44L9.55,70.07a5.64,5.64,0,0,0-6.43,4.74Z"/></g><g id="Ebene_1" data-name="Ebene 1"><text class="cls-5" transform="translate(61.38 112.93)">Pick´em</text><text class="cls-6" transform="translate(261.13 164.33)">Shopping List <tspan class="cls-7" x="191.54" y="0">A</tspan><tspan x="211.18" y="0">pp</tspan></text></g></svg>